<svg xmlns="http://www.w3.org/2000/svg" width="326.52" height="172" viewBox="0 0 326.52 172" role="img" aria-labelledby="logo-title"><title id="logo-title">Northforge</title><g fill="#D5A26F" transform="translate(119.25999999999999 13)"><path d="M39 3L82 65 58 47 65 65 46 39 49 32 72 54 43 14 46 31 36 44 32 28Z"/><path d="M31 23L6 65 26 48 23 59 34 47 43 64 36 38 30 44 34 33Z"/></g><g fill="#F2EEE6"><path d="M18.14970373535156 147.11209045410158V130.532L19.020107055664063 130.6V147.11209045410158Q19.020107055664063 148.87669128417969 19.674609130859373 149.73434564208986Q20.329111206054687 150.592 21.711209960937502 150.592Q21.797909545898438 150.592 21.797909545898438 150.796Q21.797909545898438 151.0 21.711209960937502 151.0Q21.019308715820312 151.0 20.276407470703127 150.966Q19.53350622558594 150.932 18.63760498046875 150.932Q17.729802490234377 150.932 16.88234979248047 150.966Q16.034897094726563 151.0 15.293695434570314 151.0Q15.21039501953125 151.0 15.21039501953125 150.796Q15.21039501953125 150.592 15.293695434570314 150.592Q16.789695434570312 150.592 17.469699584960935 149.73434564208986Q18.14970373535156 148.87669128417969 18.14970373535156 147.11209045410158ZM35.358806640625005 151.43520166015625Q35.358806640625005 151.5185020751953 35.196456848144535 151.53550207519532Q35.034107055664066 151.55250207519532 34.96610705566407 151.5185020751953L18.9707900390625 132.538Q17.784189208984376 131.144 16.90613983154297 130.651Q16.028090454101562 130.158 15.1967900390625 130.158Q15.110090454101563 130.158 15.110090454101563 129.954Q15.110090454101563 129.75 15.1967900390625 129.75Q15.820691284179688 129.75 16.478592529296876 129.784Q17.136493774414063 129.81799999999998 17.673695434570313 129.81799999999998Q18.486304565429688 129.81799999999998 19.16376141357422 129.784Q19.84121826171875 129.75 20.198222412109374 129.75Q20.640222412109374 129.75 20.83317303466797 130.14100000000002Q21.026123657226563 130.532 21.823424072265624 131.518L35.086806640625 147.4894647216797ZM35.358806640625005 133.67190954589844V151.43520166015625L34.503703735351564 150.39650207519531V133.67190954589844Q34.503703735351564 131.9073087158203 33.86790124511719 131.03265435791013Q33.23209875488281 130.158 31.85 130.158Q31.782 130.158 31.782 129.954Q31.782 129.75 31.85 129.75Q32.56060083007813 129.75 33.30350207519531 129.801Q34.0464033203125 129.852 34.942304565429694 129.852Q35.785506225585934 129.852 36.61340747070312 129.801Q37.44130871582031 129.75 38.133209960937506 129.75Q38.21990954589844 129.75 38.21990954589844 129.954Q38.21990954589844 130.158 38.133209960937506 130.158Q36.71711120605469 130.158 36.03795892333984 131.03265435791013Q35.358806640625005 131.9073087158203 35.358806640625005 133.67190954589844Z"/><path d="M58.74700415039063 151.408Q56.29900415039063 151.408 54.310004150390625 150.541Q52.32100415039063 149.674 50.91000415039063 148.144Q49.499004150390626 146.614 48.734004150390625 144.625Q47.969004150390624 142.636 47.969004150390624 140.392Q47.969004150390624 137.638 49.04000415039063 135.56400000000002Q50.11100415039063 133.49 51.87900415039063 132.113Q53.64700415039063 130.736 55.75500415039063 130.05599999999998Q57.86300415039063 129.376 59.93700415039063 129.376Q62.453004150390626 129.376 64.44200415039063 130.277Q66.43100415039063 131.178 67.82500415039064 132.708Q69.21900415039063 134.238 69.95000415039064 136.176Q70.68100415039063 138.114 70.68100415039063 140.154Q70.68100415039063 142.534 69.72900415039064 144.574Q68.77700415039062 146.614 67.12800415039064 148.144Q65.47900415039064 149.674 63.32000415039063 150.541Q61.161004150390625 151.408 58.74700415039063 151.408ZM59.92510290527344 150.6514979248047Q62.090897094726564 150.6514979248047 63.82999169921875 149.5541481323242Q65.56908630371095 148.45679833984374 66.58568298339844 146.32074896240232Q67.60227966308594 144.18469958496092 67.60227966308594 141.12130041503906Q67.60227966308594 137.93720166015626 66.49133319091797 135.4798518676758Q65.38038671875 133.02250207519532 63.350592529296875 131.61150207519532Q61.320798339843755 130.20050207519532 58.53960498046875 130.20050207519532Q54.978115356445315 130.20050207519532 53.012921997070315 132.60260083007813Q51.047728637695315 135.00469958496095 51.047728637695315 139.1900987548828Q51.047728637695315 141.61599999999999 51.69117718505859 143.707Q52.33462573242188 145.798 53.52122241210938 147.36369958496095Q54.70781909179688 148.92939916992188 56.33386431884766 149.79044854736327Q57.95990954589844 150.6514979248047 59.92510290527344 150.6514979248047Z"/><path d="M98.42799169921875 151.0Q97.88059252929688 151.0 96.63874481201172 149.69695062255857Q95.39689709472657 148.39390124511718 93.64930041503908 145.95185186767577Q91.90170373535157 143.50980249023436 89.72740747070313 140.14380249023438L92.03262573242188 139.43489709472655Q94.86482324218751 143.54889709472656 96.8512717895508 146.00284771728514Q98.83772033691407 148.45679833984374 100.37111950683595 149.52439916992188Q101.90451867675782 150.592 103.32061743164064 150.592Q103.40731701660157 150.592 103.40731701660157 150.796Q103.40731701660157 151.0 103.32061743164064 151.0Q101.40810705566408 151.0 100.2019506225586 151.0Q98.99579418945314 151.0 98.42799169921875 151.0ZM90.25781079101563 129.648Q93.10531701660157 129.648 94.62002075195313 130.85244854736328Q96.1347244873047 132.05689709472657 96.1347244873047 134.07819750976563Q96.1347244873047 135.972 95.05012365722658 137.47225103759766Q93.96552282714845 138.9725020751953 92.21452282714844 139.8225020751953Q90.46352282714844 140.67250207519533 88.43202490234376 140.67250207519533Q88.04952282714845 140.67250207519533 87.60327178955079 140.6538024902344Q87.15702075195313 140.63510290527344 86.78641992187501 140.60110290527345V148.246Q86.78641992187501 149.232 86.97511950683594 149.74200000000002Q87.16381909179688 150.252 87.7579672241211 150.42200000000003Q88.35211535644532 150.592 89.53701245117188 150.592Q89.62371203613282 150.592 89.62371203613282 150.796Q89.62371203613282 151.0 89.53701245117188 151.0Q88.69041162109376 151.0 87.66786016845704 150.966Q86.64530871582032 150.932 85.40940747070313 150.932Q84.26020581054688 150.932 83.20195477294922 150.966Q82.14370373535156 151.0 81.29710290527345 151.0Q81.21380249023439 151.0 81.21380249023439 150.796Q81.21380249023439 150.592 81.29710290527345 150.592Q82.48200000000001 150.592 83.07614813232422 150.42200000000003Q83.67029626464844 150.252 83.88534564208985 149.74200000000002Q84.10039501953126 149.232 84.10039501953126 148.246V132.504Q84.10039501953126 131.518 83.90234564208986 131.025Q83.70429626464845 130.532 83.1194979248047 130.345Q82.53469958496095 130.158 81.34980249023438 130.158Q81.26310290527344 130.158 81.26310290527344 129.954Q81.26310290527344 129.75 81.34980249023438 129.75Q82.17770373535157 129.75 83.21895477294922 129.801Q84.26020581054688 129.852 85.40940747070313 129.852Q86.49400830078126 129.852 87.86505767822266 129.75Q89.23610705566406 129.648 90.25781079101563 129.648ZM93.34330041503907 135.16450207519532Q93.34330041503907 133.252 92.83245269775392 132.17930041503905Q92.32160498046876 131.10660083007812 91.39255975341797 130.6595020751953Q90.46351452636719 130.2124033203125 89.19022241210938 130.2124033203125Q87.90502075195313 130.2124033203125 87.34572033691407 130.68500415039063Q86.78641992187501 131.15760498046876 86.78641992187501 132.572V139.74260083007812Q87.26241992187501 139.79190124511717 87.81576971435547 139.82590124511717Q88.36911950683594 139.8599012451172 88.79581909179689 139.8599012451172Q91.3067078857422 139.8599012451172 92.32500415039064 138.6894526977539Q93.34330041503907 137.51900415039063 93.34330041503907 135.16450207519532Z"/><path d="M117.26193444824219 130.41980249023436Q115.15053527832032 130.41980249023436 113.96732946777345 131.60045684814452Q112.78412365722657 132.78111120605467 112.19591784667969 135.3532099609375Q112.18061743164063 135.43651037597655 111.99191784667968 135.42886016845702Q111.80321826171875 135.4212099609375 111.80321826171875 135.33790954589844Q111.87121826171875 134.89930871582033 111.94856805419923 134.07905767822268Q112.02591784667969 133.258806640625 112.10156805419922 132.3042551879883Q112.17721826171875 131.34970373535157 112.22821826171875 130.46315228271484Q112.27921826171875 129.57660083007812 112.27921826171875 129.002Q112.27921826171875 128.832 112.47556805419921 128.832Q112.67191784667969 128.832 112.67191784667969 129.002Q112.67191784667969 129.34199999999998 113.01021826171876 129.495Q113.34851867675782 129.648 113.78881909179688 129.699Q114.22911950683594 129.75 114.53511950683594 129.75Q117.45911950683595 129.852 121.36911950683594 129.852Q123.76781909179688 129.852 125.1864692993164 129.801Q126.60511950683593 129.75 127.93111950683594 129.75Q129.09902075195313 129.75 129.72802075195312 129.59699999999998Q130.35702075195314 129.444 130.52702075195313 128.9Q130.56102075195312 128.764 130.73867095947264 128.764Q130.9163211669922 128.764 130.9163211669922 128.9Q130.86702075195313 129.42530041503906 130.80667095947268 130.32885186767578Q130.7463211669922 131.2324033203125 130.70467095947265 132.22860498046873Q130.66302075195313 133.224806640625 130.62902075195314 134.0697078857422Q130.59502075195314 134.9146091308594 130.59502075195314 135.33790954589844Q130.59502075195314 135.4212099609375 130.4063211669922 135.4212099609375Q130.21762158203126 135.4212099609375 130.2023211669922 135.33790954589844Q129.97281494140626 132.68930871582032 128.85165850830077 131.55455560302732Q127.73050207519532 130.41980249023436 125.53750622558594 130.41980249023436Q124.35261743164062 130.41980249023436 123.75252282714844 130.5694033203125Q123.15242822265625 130.71900415039062 122.9586298828125 131.1703539428711Q122.76483154296875 131.62170373535156 122.76483154296875 132.572V148.246Q122.76483154296875 149.232 122.98753112792969 149.74200000000002Q123.21023071289063 150.252 123.88002905273439 150.42200000000003Q124.54982739257812 150.592 125.92342407226563 150.592Q126.0067244873047 150.592 126.0067244873047 150.796Q126.0067244873047 151.0 125.92342407226563 151.0Q125.0088232421875 151.0 123.86557220458985 150.966Q122.72232116699219 150.932 121.36911950683594 150.932Q120.0839178466797 150.932 118.94066680908205 150.966Q117.79741577148438 151.0 116.84881494140626 151.0Q116.76551452636718 151.0 116.76551452636718 150.796Q116.76551452636718 150.592 116.84881494140626 150.592Q118.18841162109375 150.592 118.8752099609375 150.42200000000003Q119.56200830078126 150.252 119.80170788574219 149.74200000000002Q120.04140747070313 149.232 120.04140747070313 148.246V132.504Q120.04140747070313 131.5690041503906 119.83825933837892 131.1253045654297Q119.63511120605469 130.68160498046876 119.03331701660156 130.55070373535156Q118.43152282714844 130.41980249023436 117.26193444824219 130.41980249023436Z"/><path d="M158.77210705566407 132.572Q158.77210705566407 131.586 158.57429598758998 131.07600000000002Q158.3764849195159 130.566 157.75008320394795 130.362Q157.12368148838 130.158 155.83790954589844 130.158Q155.73590954589844 130.158 155.73590954589844 129.954Q155.73590954589844 129.75 155.83790954589844 129.75Q156.66711692400676 129.75 157.73066551766743 129.801Q158.79421411132813 129.852 160.13381909179688 129.852Q161.28302075195313 129.852 162.38717303466797 129.801Q163.4913253173828 129.75 164.3192265625 129.75Q164.4212265625 129.75 164.4212265625 129.954Q164.4212265625 130.158 164.3192265625 130.158Q163.10474866536458 130.158 162.48152974446614 130.345Q161.8583108235677 130.532 161.65057118326823 131.025Q161.44283154296875 131.518 161.44283154296875 132.504V148.246Q161.44283154296875 149.232 161.65057118326823 149.74200000000002Q161.8583108235677 150.252 162.48152974446614 150.42200000000003Q163.10474866536458 150.592 164.3192265625 150.592Q164.4212265625 150.592 164.4212265625 150.796Q164.4212265625 151.0 164.3192265625 151.0Q163.4913253173828 151.0 162.38717303466797 150.966Q161.28302075195313 150.932 160.13381909179688 150.932Q158.79421411132813 150.932 157.73066551766743 150.966Q156.66711692400676 151.0 155.83790954589844 151.0Q155.73590954589844 151.0 155.73590954589844 150.796Q155.73590954589844 150.592 155.83790954589844 150.592Q157.12368148838 150.592 157.75008320394795 150.42200000000003Q158.3764849195159 150.252 158.57429598758998 149.74200000000002Q158.77210705566407 149.232 158.77210705566407 148.246ZM144.92392614746092 140.33250207519532V139.54879833984376H159.96381909179686V140.33250207519532ZM143.67951452636717 148.246V132.504Q143.67951452636717 131.518 143.47192387887333 131.025Q143.26433323137948 130.532 142.6575298002436 130.345Q142.0507263691077 130.158 140.83711950683593 130.158Q140.75381909179686 130.158 140.75381909179686 129.954Q140.75381909179686 129.75 140.83711950683593 129.75Q141.68372033691406 129.75 142.74128060812478 129.801Q143.7988408793355 129.852 144.94602490234374 129.852Q146.30432946777344 129.852 147.3779762897256 129.801Q148.45162311167775 129.75 149.30313610839843 129.75Q149.37113610839845 129.75 149.37113610839845 129.954Q149.37113610839845 130.158 149.30313610839843 130.158Q148.05033267726256 130.158 147.42393096169462 130.362Q146.79752924612666 130.566 146.58323392237975 131.07600000000002Q146.3689385986328 131.586 146.3689385986328 132.572V148.246Q146.3689385986328 149.232 146.5729385986328 149.74200000000002Q146.7769385986328 150.252 147.41668991604098 150.42200000000003Q148.05644123344916 150.592 149.30313610839843 150.592Q149.37113610839845 150.592 149.37113610839845 150.796Q149.37113610839845 151.0 149.30313610839843 151.0Q148.4146008074725 151.0 147.35946513762298 150.966Q146.30432946777344 150.932 144.94602490234374 150.932Q143.79416230044157 150.932 142.71429111115827 150.966Q141.634419921875 151.0 140.78781909179688 151.0Q140.71981909179686 151.0 140.71981909179686 150.796Q140.71981909179686 150.592 140.78781909179688 150.592Q142.01861743164062 150.592 142.63571618652344 150.42200000000003Q143.25281494140626 150.252 143.46616473388673 149.74200000000002Q143.67951452636717 149.232 143.67951452636717 148.246Z"/><path d="M174.362419921875 151.0Q174.27911950683594 151.0 174.27911950683594 150.796Q174.27911950683594 150.592 174.362419921875 150.592Q175.59321826171876 150.592 176.2009672241211 150.42200000000003Q176.80871618652344 150.252 177.01441577148438 149.74200000000002Q177.22011535644532 149.232 177.22011535644532 148.246V132.504Q177.22011535644532 131.518 177.0220659790039 131.025Q176.8240166015625 130.532 176.23921826171875 130.345Q175.654419921875 130.158 174.46952282714844 130.158Q174.38622241210936 130.158 174.38622241210936 129.954Q174.38622241210936 129.75 174.46952282714844 129.75H188.36193444824218Q188.68323486328126 129.75 188.68323486328126 130.05599999999998L188.75123486328124 134.35360498046876Q188.75123486328124 134.4403045654297 188.57188507080076 134.45560498046876Q188.3925352783203 134.4709053955078 188.36193444824218 134.36890539550782Q188.11712780761718 132.49380249023437 187.0308232421875 131.52140332031252Q185.9445186767578 130.54900415039063 184.17311120605467 130.54900415039063H182.42382739257812Q180.95503735351562 130.54900415039063 180.43228839111327 130.97230456542968Q179.90953942871093 131.39560498046876 179.90953942871093 132.538V148.11Q179.90953942871093 149.13 180.1908892211914 149.65699999999998Q180.47223901367187 150.184 181.32903735351562 150.388Q182.18583569335937 150.592 183.8841319580078 150.592Q183.97083154296874 150.592 183.97083154296874 150.796Q183.97083154296874 151.0 183.8841319580078 151.0Q182.76553112792968 151.0 181.45993029785154 150.966Q180.15432946777344 150.932 178.52062573242188 150.932Q177.37142407226563 150.932 176.29022241210936 150.966Q175.20902075195312 151.0 174.362419921875 151.0ZM186.64323486328124 143.58630456542969Q186.64323486328124 142.132806640625 185.76688092041013 141.43665435791016Q184.89052697753905 140.7405020751953 182.95932531738282 140.7405020751953H178.6311278076172V139.95679833984374H183.04942407226562Q184.92452697753907 139.95679833984374 185.76688092041016 139.33629626464844Q186.60923486328124 138.71579418945313 186.60923486328124 137.48839501953125Q186.60923486328124 137.42039501953124 186.81323486328125 137.42039501953124Q187.01723486328126 137.42039501953124 187.01723486328126 137.48839501953125Q187.01723486328126 138.55089709472657 187.00023486328126 139.1331481323242Q186.98323486328124 139.71539916992188 186.98323486328124 140.358Q186.98323486328124 141.1519012451172 187.01723486328126 141.92115228271484Q187.05123486328125 142.6904033203125 187.05123486328125 143.58630456542969Q187.05123486328125 143.66960498046876 186.84723486328124 143.66960498046876Q186.64323486328124 143.66960498046876 186.64323486328124 143.58630456542969Z"/><path d="M210.41223071289062 151.408Q207.96423071289064 151.408 205.97523071289064 150.541Q203.98623071289063 149.674 202.57523071289063 148.144Q201.16423071289063 146.614 200.39923071289064 144.625Q199.63423071289063 142.636 199.63423071289063 140.392Q199.63423071289063 137.638 200.70523071289062 135.56400000000002Q201.77623071289062 133.49 203.54423071289062 132.113Q205.31223071289062 130.736 207.42023071289063 130.05599999999998Q209.52823071289063 129.376 211.60223071289062 129.376Q214.11823071289064 129.376 216.10723071289064 130.277Q218.09623071289064 131.178 219.49023071289065 132.708Q220.88423071289063 134.238 221.61523071289065 136.176Q222.34623071289064 138.114 222.34623071289064 140.154Q222.34623071289064 142.534 221.39423071289065 144.574Q220.44223071289062 146.614 218.79323071289065 148.144Q217.14423071289065 149.674 214.98523071289065 150.541Q212.82623071289063 151.408 210.41223071289062 151.408ZM211.59032946777344 150.6514979248047Q213.75612365722657 150.6514979248047 215.49521826171878 149.5541481323242Q217.23431286621096 148.45679833984374 218.25090954589845 146.32074896240232Q219.26750622558595 144.18469958496092 219.26750622558595 141.12130041503906Q219.26750622558595 137.93720166015626 218.15655975341798 135.4798518676758Q217.04561328125 133.02250207519532 215.01581909179689 131.61150207519532Q212.98602490234376 130.20050207519532 210.20483154296875 130.20050207519532Q206.6433419189453 130.20050207519532 204.67814855957033 132.60260083007813Q202.71295520019532 135.00469958496095 202.71295520019532 139.1900987548828Q202.71295520019532 141.61599999999999 203.3564037475586 143.707Q203.99985229492188 145.798 205.1864489746094 147.36369958496095Q206.37304565429687 148.92939916992188 207.99909088134766 149.79044854736327Q209.62513610839844 150.6514979248047 211.59032946777344 150.6514979248047Z"/><path d="M250.09321826171876 151.0Q249.5458190917969 151.0 248.30397137451172 149.69695062255857Q247.06212365722658 148.39390124511718 245.31452697753906 145.95185186767577Q243.56693029785157 143.50980249023436 241.39263403320314 140.14380249023438L243.6978522949219 139.43489709472655Q246.5300498046875 143.54889709472656 248.5164983520508 146.00284771728514Q250.50294689941407 148.45679833984374 252.03634606933593 149.52439916992188Q253.56974523925783 150.592 254.98584399414065 150.592Q255.0725435791016 150.592 255.0725435791016 150.796Q255.0725435791016 151.0 254.98584399414065 151.0Q253.07333361816407 151.0 251.8671771850586 151.0Q250.66102075195315 151.0 250.09321826171876 151.0ZM241.92303735351564 129.648Q244.77054357910157 129.648 246.28524731445313 130.85244854736328Q247.7999510498047 132.05689709472657 247.7999510498047 134.07819750976563Q247.7999510498047 135.972 246.7153502197266 137.47225103759766Q245.63074938964846 138.9725020751953 243.87974938964845 139.8225020751953Q242.12874938964845 140.67250207519533 240.09725146484377 140.67250207519533Q239.71474938964846 140.67250207519533 239.2684983520508 140.6538024902344Q238.82224731445314 140.63510290527344 238.451646484375 140.60110290527345V148.246Q238.451646484375 149.232 238.64034606933595 149.74200000000002Q238.8290456542969 150.252 239.4231937866211 150.42200000000003Q240.01734191894533 150.592 241.20223901367189 150.592Q241.28893859863283 150.592 241.28893859863283 150.796Q241.28893859863283 151.0 241.20223901367189 151.0Q240.35563818359375 151.0 239.33308673095704 150.966Q238.31053527832032 150.932 237.07463403320315 150.932Q235.9254323730469 150.932 234.86718133544923 150.966Q233.8089302978516 151.0 232.96232946777346 151.0Q232.87902905273438 151.0 232.87902905273438 150.796Q232.87902905273438 150.592 232.96232946777346 150.592Q234.1472265625 150.592 234.74137469482423 150.42200000000003Q235.33552282714845 150.252 235.55057220458986 149.74200000000002Q235.76562158203126 149.232 235.76562158203126 148.246V132.504Q235.76562158203126 131.518 235.56757220458985 131.025Q235.36952282714844 130.532 234.7847244873047 130.345Q234.19992614746096 130.158 233.0150290527344 130.158Q232.92832946777347 130.158 232.92832946777347 129.954Q232.92832946777347 129.75 233.0150290527344 129.75Q233.84293029785158 129.75 234.88418133544923 129.801Q235.9254323730469 129.852 237.07463403320315 129.852Q238.15923486328126 129.852 239.53028424072266 129.75Q240.90133361816407 129.648 241.92303735351564 129.648ZM245.00852697753908 135.16450207519532Q245.00852697753908 133.252 244.4976792602539 132.17930041503905Q243.98683154296876 131.10660083007812 243.05778631591798 130.6595020751953Q242.1287410888672 130.2124033203125 240.8554489746094 130.2124033203125Q239.57024731445316 130.2124033203125 239.01094689941408 130.68500415039063Q238.451646484375 131.15760498046876 238.451646484375 132.572V139.74260083007812Q238.927646484375 139.79190124511717 239.48099627685548 139.82590124511717Q240.03434606933595 139.8599012451172 240.4610456542969 139.8599012451172Q242.9719344482422 139.8599012451172 243.99023071289065 138.6894526977539Q245.00852697753908 137.51900415039063 245.00852697753908 135.16450207519532Z"/><path d="M276.1793502197266 151.408Q273.26214855957033 151.408 270.96289752197265 150.53930041503907Q268.663646484375 149.67060083007811 267.07839544677734 148.13720166015625Q265.4931444091797 146.6038024902344 264.66184399414067 144.60375311279296Q263.8305435791016 142.60370373535156 263.8305435791016 140.34100415039063Q263.8305435791016 137.82160498046875 264.8071937866211 135.80965435791015Q265.7838439941406 133.79770373535155 267.53909503173827 132.35610290527342Q269.294346069336 130.91450207519532 271.6428975219727 130.14525103759766Q273.9914489746094 129.376 276.73525146484377 129.376Q278.5015477294922 129.376 280.09614855957034 129.68879833984374Q281.69074938964843 130.0015966796875 282.7294489746094 130.57449377441407Q283.02865063476565 130.71049377441406 283.0703008422852 130.80484356689453Q283.1119510498047 130.899193359375 283.1459510498047 131.33779418945312L283.5692514648438 135.55890539550782Q283.5692514648438 135.66090539550783 283.39925146484376 135.69490539550782Q283.22925146484374 135.7289053955078 283.16125146484376 135.61160498046874Q282.848453125 134.55421411132812 282.27215270996095 133.54781494140624Q281.6958522949219 132.54141577148437 280.8093008422852 131.7466626586914Q279.92274938964846 130.95190954589845 278.70894689941406 130.46485601806643Q277.4951444091797 129.97780249023438 275.8920415039063 129.97780249023438Q273.3794489746094 129.97780249023438 271.3420045776367 131.16015228271485Q269.30456018066405 132.3425020751953 268.110313293457 134.53720166015626Q266.91606640625 136.73190124511717 266.91606640625 139.7766008300781Q266.91606640625 141.962806640625 267.5756672363282 143.95945684814453Q268.23526806640626 145.95610705566406 269.5289676513672 147.51925518798828Q270.82266723632813 149.0824033203125 272.7096630859375 149.98425103759766Q274.5966589355469 150.88609875488282 277.06674938964846 150.88609875488282Q278.5831444091797 150.88609875488282 279.4866917114258 150.50530041503907Q280.3902390136719 150.12450207519532 280.7939879760742 149.22180249023438Q281.19773693847657 148.31910290527344 281.19773693847657 146.73469958496094Q281.19773693847657 145.10269958496093 280.9920373535156 144.33769958496094Q280.7863377685547 143.57269958496093 280.0068892211914 143.33469958496093Q279.22744067382814 143.09669958496093 277.47984399414065 143.09669958496093Q277.27584399414064 143.09669958496093 277.27584399414064 142.82469958496094Q277.27584399414064 142.55269958496095 277.44584399414066 142.55269958496095Q279.6762473144531 142.68869958496094 281.4867493896485 142.70569958496094Q283.2972514648438 142.72269958496094 285.29305395507816 142.62069958496093Q285.44775354003906 142.62069958496093 285.4554037475586 142.85869958496093Q285.4630539550781 143.09669958496093 285.29305395507816 143.09669958496093Q284.56545727539066 143.06269958496094 284.22800872802736 143.31769958496093Q283.89056018066407 143.57269958496093 283.8038605957031 144.42269958496092Q283.7171610107422 145.27269958496095 283.7171610107422 147.07469958496094Q283.7171610107422 148.19669958496092 283.7851610107422 148.74069958496094Q283.8531610107422 149.28469958496095 283.9041610107422 149.53969958496094Q283.9551610107422 149.79469958496094 283.9551610107422 150.06669958496093Q283.9551610107422 150.27069958496094 283.8871610107422 150.33869958496092Q283.8191610107422 150.40669958496093 283.5811610107422 150.47469958496094Q281.8046589355469 150.864 279.8598564453125 151.136Q277.9150539550781 151.408 276.1793502197266 151.408Z"/><path d="M310.04296350097655 151.0H295.5572514648437Q295.47395104980467 151.0 295.47395104980467 150.796Q295.47395104980467 150.592 295.5572514648437 150.592Q296.7421485595703 150.592 297.32694689941405 150.42200000000003Q297.9117452392578 150.252 298.1097946166992 149.74200000000002Q298.3078439941406 149.232 298.3078439941406 148.246V132.504Q298.3078439941406 131.518 298.1097946166992 131.025Q297.9117452392578 130.532 297.32694689941405 130.345Q296.7421485595703 130.158 295.5572514648437 130.158Q295.47395104980467 130.158 295.47395104980467 129.954Q295.47395104980467 129.75 295.5572514648437 129.75H309.4496630859375Q309.77096350097656 129.75 309.77096350097656 130.05599999999998L309.83896350097655 134.35360498046876Q309.83896350097655 134.4403045654297 309.65961370849607 134.45560498046876Q309.4802639160156 134.4709053955078 309.4496630859375 134.36890539550782Q309.2048564453125 132.49380249023437 308.11855187988283 131.52140332031252Q307.0322473144531 130.54900415039063 305.26083984375 130.54900415039063H303.5115560302734Q302.5136630859375 130.54900415039063 301.9688153686524 130.72665435791015Q301.4239676513672 130.9043045654297 301.21061785888674 131.35905352783203Q300.99726806640626 131.81380249023437 300.99726806640626 132.63149792480468V148.11Q300.99726806640626 148.92429626464843 301.19531744384767 149.38499584960937Q301.3933668212891 149.8456954345703 301.89231329345705 150.03099584960938Q302.39125976562497 150.21629626464843 303.32795104980465 150.21629626464843H305.5532265625Q307.49464233398436 150.21629626464843 308.75604980468745 149.07219750976563Q310.0174572753906 147.92809875488283 310.48496350097656 145.8370946044922Q310.5002639160156 145.7350946044922 310.6966137084961 145.76739501953125Q310.8929635009766 145.7996954345703 310.8929635009766 145.88639501953125Q310.75696350097655 146.81629626464843 310.664313293457 148.1031975097656Q310.5716630859375 149.3900987548828 310.5716630859375 150.49Q310.5716630859375 151.0 310.04296350097655 151.0ZM308.13896350097656 143.19360498046876Q308.13896350097656 141.724806640625 307.30935852050777 141.02865435791017Q306.47975354003904 140.33250207519532 304.6641485595703 140.33250207519532H299.7188564453125V139.54879833984376H304.73554772949217Q306.49845312499997 139.54879833984376 307.30170831298824 138.94529626464845Q308.10496350097657 138.3417941894531 308.10496350097657 137.0956954345703Q308.10496350097657 137.01239501953125 308.30131329345704 137.01239501953125Q308.4976630859375 137.01239501953125 308.4976630859375 137.0956954345703Q308.4976630859375 138.14289709472655 308.4806630859375 138.7251481323242Q308.46366308593747 139.30739916992187 308.46366308593747 139.95Q308.46366308593747 140.74390124511717 308.505313293457 141.51315228271483Q308.5469635009766 142.2824033203125 308.5469635009766 143.19360498046876Q308.5469635009766 143.26160498046875 308.34296350097657 143.26160498046875Q308.13896350097656 143.26160498046875 308.13896350097656 143.19360498046876Z"/></g></svg>
